<svg xmlns="http://www.w3.org/2000/svg" viewBox="0 0 80.45 50"><defs><style>.cls-1{fill:#40c1ac;}.cls-2{fill:#ff6900;}.cls-3{fill:#da1984;}.cls-4{fill:#1e1e1e;}</style></defs><title>VISORIAN-Signet-RGB-pos</title><g id="Ebene_2" data-name="Ebene 2"><g id="Ebene_1-2" data-name="Ebene 1"><path class="cls-1" d="M46.56,50C40,50,39,49.16,37.14,42.34L26,1c-.19-.84.07-1,.78-1h6.63c.58,0,.65.2.84,1l12.83,47.9C47.34,49.81,47.19,50,46.56,50Z"/><path class="cls-2" d="M33.58,50C27,50,26,49.16,24.15,42.34L13.05,1c-.2-.84.06-1,.78-1h6.62c.59,0,.65.2.85,1l12.82,47.9C34.36,49.81,34.2,50,33.58,50Z"/><path class="cls-3" d="M20.59,50C14,50,13,49.16,11.17,42.34L.06,1C-.13.2.13,0,.84,0H7.47c.58,0,.64.2.84,1l12.83,47.9C21.37,49.81,21.22,50,20.59,50Z"/><path class="cls-4" d="M46.42,0c.59,0,.65.2.85,1L57.79,40.32c.65,2.28.84,2.73,1.94,2.73,1.37,0,1.63-.45,2.21-2.73L72.14,1c.19-.84.26-1,.84-1H79.6c.72,0,1,.2.78,1L69.61,42.34C67.85,49.16,66.94,50,59.73,50,53,50,52,49.22,50.12,42.34L39,1c-.19-.84.07-1,.78-1Z"/></g></g></svg>